<svg xmlns="http://www.w3.org/2000/svg" viewBox="0 0 64 64" width="64" height="64" shape-rendering="crispEdges">
  <rect width="64" height="64" rx="12" fill="#08090b"/>
  <rect x="4.5" y="4.5" width="55" height="55" rx="9" fill="none" stroke="#2a2c30" stroke-width="1"/>
  <rect x="21.00" y="23.20" width="2.2" height="2.2" fill="#e8edf2"/>
  <rect x="23.20" y="23.20" width="2.2" height="2.2" fill="#e8edf2"/>
  <rect x="25.40" y="23.20" width="2.2" height="2.2" fill="#e8edf2"/>
  <rect x="27.60" y="23.20" width="2.2" height="2.2" fill="#e8edf2"/>
  <rect x="29.80" y="23.20" width="2.2" height="2.2" fill="#e8edf2"/>
  <rect x="32.00" y="23.20" width="2.2" height="2.2" fill="#e8edf2"/>
  <rect x="34.20" y="23.20" width="2.2" height="2.2" fill="#e8edf2"/>
  <rect x="36.40" y="23.20" width="2.2" height="2.2" fill="#e8edf2"/>
  <rect x="38.60" y="23.20" width="2.2" height="2.2" fill="#e8edf2"/>
  <rect x="16.60" y="25.40" width="2.2" height="2.2" fill="#e8edf2"/>
  <rect x="18.80" y="25.40" width="2.2" height="2.2" fill="#e8edf2"/>
  <rect x="21.00" y="25.40" width="2.2" height="2.2" fill="#7f8a96"/>
  <rect x="23.20" y="25.40" width="2.2" height="2.2" fill="#7f8a96"/>
  <rect x="25.40" y="25.40" width="2.2" height="2.2" fill="#7f8a96"/>
  <rect x="27.60" y="25.40" width="2.2" height="2.2" fill="#7f8a96"/>
  <rect x="29.80" y="25.40" width="2.2" height="2.2" fill="#7f8a96"/>
  <rect x="32.00" y="25.40" width="2.2" height="2.2" fill="#7f8a96"/>
  <rect x="34.20" y="25.40" width="2.2" height="2.2" fill="#7f8a96"/>
  <rect x="36.40" y="25.40" width="2.2" height="2.2" fill="#7f8a96"/>
  <rect x="38.60" y="25.40" width="2.2" height="2.2" fill="#e8edf2"/>
  <rect x="40.80" y="25.40" width="2.2" height="2.2" fill="#e8edf2"/>
  <rect x="43.00" y="25.40" width="2.2" height="2.2" fill="#e8edf2"/>
  <rect x="10.00" y="27.60" width="2.2" height="2.2" fill="#e8edf2"/>
  <rect x="12.20" y="27.60" width="2.2" height="2.2" fill="#e8edf2"/>
  <rect x="14.40" y="27.60" width="2.2" height="2.2" fill="#e8edf2"/>
  <rect x="16.60" y="27.60" width="2.2" height="2.2" fill="#e8edf2"/>
  <rect x="18.80" y="27.60" width="2.2" height="2.2" fill="#7f8a96"/>
  <rect x="21.00" y="27.60" width="2.2" height="2.2" fill="#7f8a96"/>
  <rect x="23.20" y="27.60" width="2.2" height="2.2" fill="#7f8a96"/>
  <rect x="25.40" y="27.60" width="2.2" height="2.2" fill="#7f8a96"/>
  <rect x="27.60" y="27.60" width="2.2" height="2.2" fill="#7f8a96"/>
  <rect x="29.80" y="27.60" width="2.2" height="2.2" fill="#7f8a96"/>
  <rect x="32.00" y="27.60" width="2.2" height="2.2" fill="#7f8a96"/>
  <rect x="34.20" y="27.60" width="2.2" height="2.2" fill="#7f8a96"/>
  <rect x="36.40" y="27.60" width="2.2" height="2.2" fill="#7f8a96"/>
  <rect x="38.60" y="27.60" width="2.2" height="2.2" fill="#7f8a96"/>
  <rect x="40.80" y="27.60" width="2.2" height="2.2" fill="#7f8a96"/>
  <rect x="43.00" y="27.60" width="2.2" height="2.2" fill="#e8edf2"/>
  <rect x="45.20" y="27.60" width="2.2" height="2.2" fill="#e8edf2"/>
  <rect x="47.40" y="27.60" width="2.2" height="2.2" fill="#e8edf2"/>
  <rect x="49.60" y="27.60" width="2.2" height="2.2" fill="#e8edf2"/>
  <rect x="51.80" y="27.60" width="2.2" height="2.2" fill="#e8edf2"/>
  <rect x="5.60" y="29.80" width="2.2" height="2.2" fill="#e8edf2"/>
  <rect x="7.80" y="29.80" width="2.2" height="2.2" fill="#e8edf2"/>
  <rect x="10.00" y="29.80" width="2.2" height="2.2" fill="#e8edf2"/>
  <rect x="12.20" y="29.80" width="2.2" height="2.2" fill="#e8edf2"/>
  <rect x="14.40" y="29.80" width="2.2" height="2.2" fill="#e8edf2"/>
  <rect x="16.60" y="29.80" width="2.2" height="2.2" fill="#e8edf2"/>
  <rect x="18.80" y="29.80" width="2.2" height="2.2" fill="#e8edf2"/>
  <rect x="21.00" y="29.80" width="2.2" height="2.2" fill="#e8edf2"/>
  <rect x="23.20" y="29.80" width="2.2" height="2.2" fill="#e8edf2"/>
  <rect x="25.40" y="29.80" width="2.2" height="2.2" fill="#e8edf2"/>
  <rect x="27.60" y="29.80" width="2.2" height="2.2" fill="#e8edf2"/>
  <rect x="29.80" y="29.80" width="2.2" height="2.2" fill="#e8edf2"/>
  <rect x="32.00" y="29.80" width="2.2" height="2.2" fill="#e8edf2"/>
  <rect x="34.20" y="29.80" width="2.2" height="2.2" fill="#e8edf2"/>
  <rect x="36.40" y="29.80" width="2.2" height="2.2" fill="#e8edf2"/>
  <rect x="38.60" y="29.80" width="2.2" height="2.2" fill="#e8edf2"/>
  <rect x="40.80" y="29.80" width="2.2" height="2.2" fill="#e8edf2"/>
  <rect x="43.00" y="29.80" width="2.2" height="2.2" fill="#e8edf2"/>
  <rect x="45.20" y="29.80" width="2.2" height="2.2" fill="#e8edf2"/>
  <rect x="47.40" y="29.80" width="2.2" height="2.2" fill="#e8edf2"/>
  <rect x="49.60" y="29.80" width="2.2" height="2.2" fill="#e8edf2"/>
  <rect x="51.80" y="29.80" width="2.2" height="2.2" fill="#e8edf2"/>
  <rect x="54.00" y="29.80" width="2.2" height="2.2" fill="#e8edf2"/>
  <rect x="56.20" y="29.80" width="2.2" height="2.2" fill="#ff5a5a"/>
  <rect x="3.40" y="32.00" width="2.2" height="2.2" fill="#ff5a5a"/>
  <rect x="5.60" y="32.00" width="2.2" height="2.2" fill="#e8edf2"/>
  <rect x="7.80" y="32.00" width="2.2" height="2.2" fill="#e8edf2"/>
  <rect x="10.00" y="32.00" width="2.2" height="2.2" fill="#e8edf2"/>
  <rect x="12.20" y="32.00" width="2.2" height="2.2" fill="#e8edf2"/>
  <rect x="14.40" y="32.00" width="2.2" height="2.2" fill="#e8edf2"/>
  <rect x="16.60" y="32.00" width="2.2" height="2.2" fill="#e8edf2"/>
  <rect x="18.80" y="32.00" width="2.2" height="2.2" fill="#e8edf2"/>
  <rect x="21.00" y="32.00" width="2.2" height="2.2" fill="#e8edf2"/>
  <rect x="23.20" y="32.00" width="2.2" height="2.2" fill="#e8edf2"/>
  <rect x="25.40" y="32.00" width="2.2" height="2.2" fill="#e8edf2"/>
  <rect x="27.60" y="32.00" width="2.2" height="2.2" fill="#e8edf2"/>
  <rect x="29.80" y="32.00" width="2.2" height="2.2" fill="#e8edf2"/>
  <rect x="32.00" y="32.00" width="2.2" height="2.2" fill="#e8edf2"/>
  <rect x="34.20" y="32.00" width="2.2" height="2.2" fill="#e8edf2"/>
  <rect x="36.40" y="32.00" width="2.2" height="2.2" fill="#e8edf2"/>
  <rect x="38.60" y="32.00" width="2.2" height="2.2" fill="#e8edf2"/>
  <rect x="40.80" y="32.00" width="2.2" height="2.2" fill="#e8edf2"/>
  <rect x="43.00" y="32.00" width="2.2" height="2.2" fill="#e8edf2"/>
  <rect x="45.20" y="32.00" width="2.2" height="2.2" fill="#e8edf2"/>
  <rect x="47.40" y="32.00" width="2.2" height="2.2" fill="#e8edf2"/>
  <rect x="49.60" y="32.00" width="2.2" height="2.2" fill="#e8edf2"/>
  <rect x="51.80" y="32.00" width="2.2" height="2.2" fill="#e8edf2"/>
  <rect x="54.00" y="32.00" width="2.2" height="2.2" fill="#e8edf2"/>
  <rect x="56.20" y="32.00" width="2.2" height="2.2" fill="#e8edf2"/>
  <rect x="5.60" y="34.20" width="2.2" height="2.2" fill="#e8edf2"/>
  <rect x="7.80" y="34.20" width="2.2" height="2.2" fill="#e8edf2"/>
  <rect x="10.00" y="34.20" width="2.2" height="2.2" fill="#e8edf2"/>
  <rect x="12.20" y="34.20" width="2.2" height="2.2" fill="#1c1f24"/>
  <rect x="16.60" y="34.20" width="2.2" height="2.2" fill="#e8edf2"/>
  <rect x="18.80" y="34.20" width="2.2" height="2.2" fill="#e8edf2"/>
  <rect x="21.00" y="34.20" width="2.2" height="2.2" fill="#e8edf2"/>
  <rect x="23.20" y="34.20" width="2.2" height="2.2" fill="#e8edf2"/>
  <rect x="25.40" y="34.20" width="2.2" height="2.2" fill="#e8edf2"/>
  <rect x="27.60" y="34.20" width="2.2" height="2.2" fill="#e8edf2"/>
  <rect x="29.80" y="34.20" width="2.2" height="2.2" fill="#e8edf2"/>
  <rect x="32.00" y="34.20" width="2.2" height="2.2" fill="#e8edf2"/>
  <rect x="34.20" y="34.20" width="2.2" height="2.2" fill="#e8edf2"/>
  <rect x="36.40" y="34.20" width="2.2" height="2.2" fill="#e8edf2"/>
  <rect x="38.60" y="34.20" width="2.2" height="2.2" fill="#e8edf2"/>
  <rect x="40.80" y="34.20" width="2.2" height="2.2" fill="#e8edf2"/>
  <rect x="43.00" y="34.20" width="2.2" height="2.2" fill="#e8edf2"/>
  <rect x="45.20" y="34.20" width="2.2" height="2.2" fill="#1c1f24"/>
  <rect x="49.60" y="34.20" width="2.2" height="2.2" fill="#e8edf2"/>
  <rect x="51.80" y="34.20" width="2.2" height="2.2" fill="#e8edf2"/>
  <rect x="54.00" y="34.20" width="2.2" height="2.2" fill="#e8edf2"/>
  <rect x="10.00" y="36.40" width="2.2" height="2.2" fill="#1c1f24"/>
  <rect x="14.40" y="36.40" width="2.2" height="2.2" fill="#1c1f24"/>
  <rect x="45.20" y="36.40" width="2.2" height="2.2" fill="#1c1f24"/>
  <rect x="49.60" y="36.40" width="2.2" height="2.2" fill="#1c1f24"/>
  <rect x="10.00" y="38.60" width="2.2" height="2.2" fill="#1c1f24"/>
  <rect x="14.40" y="38.60" width="2.2" height="2.2" fill="#1c1f24"/>
  <rect x="45.20" y="38.60" width="2.2" height="2.2" fill="#1c1f24"/>
  <rect x="49.60" y="38.60" width="2.2" height="2.2" fill="#1c1f24"/>
  <rect x="12.20" y="40.80" width="2.2" height="2.2" fill="#1c1f24"/>
  <rect x="47.40" y="40.80" width="2.2" height="2.2" fill="#1c1f24"/>
</svg>
